<?xml version="1.0" encoding="iso-8859-1"?>
<!-- Generator: Adobe Illustrator 19.0.0, SVG Export Plug-In . SVG Version: 6.00 Build 0)  -->
<svg version="1.1" id="Layer_1" xmlns="http://www.w3.org/2000/svg" xmlns:xlink="http://www.w3.org/1999/xlink" x="0px" y="0px"
	 viewBox="0 0 511.999 511.999" style="enable-background:new 0 0 511.999 511.999;" xml:space="preserve">
<g>
	<path style="fill:#EFEFEF;" d="M391.022,182.916l31.431-31.431c13.844-13.844,13.844-36.288,0-50.132l-11.806-11.806
		c-13.844-13.844-36.288-13.844-50.132,0l-31.431,31.431L391.022,182.916z"/>
	<path style="fill:#EFEFEF;" d="M391.745,293.285v-74.571h50.742c19.043,0,34.482,15.438,34.482,34.482v5.608
		c0,19.043-15.438,34.482-34.482,34.482H391.745z"/>
	<path style="fill:#EFEFEF;" d="M120.257,218.715v74.571H69.515c-19.043,0-34.482-15.438-34.482-34.482v-5.608
		c0-19.043,15.438-34.482,34.482-34.482H120.257z"/>
	<path style="fill:#EFEFEF;" d="M218.716,391.744h74.571v50.742c0,19.043-15.438,34.482-34.482,34.482h-5.608
		c-19.043,0-34.482-15.438-34.482-34.482V391.744z"/>
	<path style="fill:#EFEFEF;" d="M293.287,120.255h-74.571V69.513c0-19.043,15.438-34.482,34.482-34.482h5.608
		c19.043,0,34.482,15.438,34.482,34.482V120.255z"/>
</g>
<ellipse transform="matrix(0.7071 -0.7071 0.7071 0.7071 -106.0365 256.0017)" style="fill:#39B54A;" cx="256.003" cy="255.998" rx="154.126" ry="143.814"/>
<polygon style="fill:#009444;" points="194.932,272.363 211.295,211.294 272.365,194.93 317.071,239.636 300.707,300.706 
	239.638,317.069 "/>
<g>
	<path style="fill:#231F20;" d="M501.348,245.347h-14.422c-0.817-4.638-2.342-9.035-4.464-13.073l11.939-11.939
		c4.16-4.16,4.16-10.905,0-15.067c-4.161-4.16-10.904-4.16-15.067,0l-10.976,10.976c-7.331-5.149-16.251-8.184-25.871-8.184h-31.41
		c-1.91-7.708-4.423-15.263-7.541-22.593l26.45-26.449c17.975-17.976,17.975-47.223,0-65.198l-11.806-11.806
		c-8.708-8.707-20.285-13.503-32.599-13.503c-12.315,0-23.893,4.795-32.6,13.503l-26.449,26.45
		c-7.33-3.118-14.884-5.631-22.593-7.541v-31.41c0-9.62-3.035-18.539-8.184-25.871l10.976-10.976c4.16-4.16,4.16-10.905,0-15.067
		c-4.161-4.16-10.904-4.16-15.067,0l-11.939,11.939c-4.039-2.122-8.434-3.647-13.072-4.464V10.653
		c0-5.884-4.77-10.653-10.653-10.653c-5.884,0-10.653,4.769-10.653,10.653v14.423c-4.638,0.817-9.035,2.342-13.072,4.464
		L220.337,17.6c-4.16-4.16-10.905-4.16-15.067,0c-4.16,4.16-4.16,10.905,0,15.067l10.976,10.976
		c-5.149,7.332-8.184,16.251-8.184,25.871v37.568c-22.201,8.366-43.21,21.615-61.288,39.692
		c-18.078,18.078-31.327,39.087-39.693,61.288H69.514c-9.62,0-18.538,3.035-25.871,8.184l-10.976-10.976
		c-4.16-4.16-10.905-4.16-15.067,0c-4.16,4.16-4.16,10.905,0,15.067l11.939,11.939c-2.122,4.037-3.647,8.434-4.464,13.072H10.654
		c-5.884,0-10.653,4.769-10.653,10.653c0,5.884,4.769,10.653,10.653,10.653h14.423c0.817,4.638,2.342,9.035,4.464,13.072
		l-11.939,11.939c-4.16,4.16-4.16,10.905,0,15.067c2.081,2.081,4.807,3.12,7.533,3.12s5.453-1.04,7.533-3.12l10.976-10.976
		c7.331,5.149,16.251,8.184,25.871,8.184h31.411c5.47,22.08,15.889,42.909,31.31,60.76l-23.126,23.126
		c-4.16,4.16-4.16,10.905,0,15.065c2.081,2.081,4.807,3.12,7.533,3.12c2.726,0,5.453-1.041,7.533-3.12l23.121-23.122
		c17.852,15.423,38.682,25.838,60.764,31.308v31.411c0,9.62,3.035,18.539,8.184,25.871l-10.976,10.976
		c-4.16,4.16-4.16,10.905,0,15.067c2.081,2.081,4.807,3.12,7.533,3.12s5.453-1.04,7.533-3.12l11.94-11.94
		c4.037,2.122,8.434,3.647,13.072,4.464v14.423c0,5.884,4.769,10.653,10.653,10.653c5.883,0,10.653-4.769,10.653-10.653v-14.423
		c4.638-0.817,9.035-2.342,13.072-4.464l11.94,11.94c2.081,2.081,4.807,3.12,7.533,3.12s5.452-1.04,7.533-3.12
		c4.16-4.16,4.16-10.905,0-15.067l-10.976-10.976c5.149-7.332,8.184-16.251,8.184-25.871v-37.578
		c22.201-8.366,43.212-21.605,61.288-39.682l0,0c18.077-18.077,31.327-39.086,39.693-61.287h37.568
		c9.62,0,18.539-3.035,25.871-8.184l10.976,10.976c2.081,2.081,4.807,3.12,7.533,3.12c2.726,0,5.452-1.04,7.533-3.12
		c4.16-4.16,4.16-10.905,0-15.067l-11.939-11.939c2.122-4.039,3.647-8.434,4.464-13.073h14.422c5.883,0,10.653-4.769,10.653-10.653
		S507.231,245.347,501.348,245.347z M322.61,230.109l-40.719-40.719l7.12-69.844c25.414,4.294,49.349,15.916,68.438,35.004
		c19.089,19.089,30.708,43.024,35.001,68.439L322.61,230.109z M154.553,357.448c-19.089-19.089-30.708-43.023-35.001-68.438
		l69.842-7.12l40.719,40.719l-7.12,69.841C197.576,388.157,173.642,376.538,154.553,357.448z M154.567,169.632l44.846,44.846
		l-12.389,46.238l-69.364,7.071C117.303,233.454,129.704,198.15,154.567,169.632z M260.717,187.022l-46.237,12.389l-44.843-44.842
		c28.119-24.515,62.831-36.918,96.709-36.918c0.48,0,0.961,0.012,1.441,0.016L260.717,187.022z M242.822,305.187l-36.008-36.008
		l13.18-49.188l49.188-13.18l36.008,36.008l-13.18,49.187L242.822,305.187z M368.048,97.081c9.667-9.668,25.4-9.669,35.066,0
		l11.806,11.806c9.668,9.668,9.668,25.398,0,35.066l-21.678,21.677c-5.785-9.321-12.683-18.102-20.726-26.145
		c-8.044-8.043-16.824-14.942-26.146-20.726L368.048,97.081z M229.369,69.513c0-13.139,10.689-23.829,23.829-23.829h5.608
		c13.139,0,23.829,10.689,23.829,23.829v27.701c-17.604-1.815-35.626-0.667-53.265,3.421L229.369,69.513L229.369,69.513z
		 M69.514,282.633c-13.138,0-23.829-10.689-23.829-23.829v-5.608c0-13.139,10.689-23.829,23.829-23.829h31.122
		c-4.089,17.639-5.237,35.662-3.421,53.265L69.514,282.633L69.514,282.633z M282.634,442.486c0,13.138-10.689,23.829-23.829,23.829
		h-5.608c-13.138,0-23.829-10.689-23.829-23.829v-27.7c5.397,0.557,10.833,0.845,16.286,0.845c12.333,0,24.748-1.432,36.979-4.267
		V442.486z M350.162,350.16c-29.718,29.719-68.415,44.571-105.948,44.181l7.071-69.364l52.178-13.982
		c3.676-0.985,6.547-3.856,7.533-7.533l13.981-52.179l69.364-7.071C394.733,281.745,379.879,320.441,350.162,350.16z
		 M442.488,282.633h-31.122c4.089-17.639,5.237-35.661,3.421-53.265h27.7c13.139,0,23.829,10.689,23.829,23.829v5.608
		C466.317,271.942,455.628,282.633,442.488,282.633z"/>
	<path style="fill:#231F20;" d="M336.23,321.162c-4.161-4.16-10.904-4.16-15.067,0c-4.16,4.16-4.16,10.905,0,15.067l1.009,1.009
		c2.081,2.081,4.807,3.12,7.533,3.12c2.726,0,5.452-1.04,7.533-3.12c4.16-4.16,4.16-10.905,0-15.067L336.23,321.162z"/>
</g>
<g>
</g>
<g>
</g>
<g>
</g>
<g>
</g>
<g>
</g>
<g>
</g>
<g>
</g>
<g>
</g>
<g>
</g>
<g>
</g>
<g>
</g>
<g>
</g>
<g>
</g>
<g>
</g>
<g>
</g>
</svg>
